<?xml version="1.0" encoding="utf-8"?>
<!-- Generator: Adobe Illustrator 16.0.0, SVG Export Plug-In . SVG Version: 6.00 Build 0)  -->
<!DOCTYPE svg PUBLIC "-//W3C//DTD SVG 1.1//EN" "http://www.w3.org/Graphics/SVG/1.1/DTD/svg11.dtd">
<svg version="1.1" id="Layer_1" xmlns="http://www.w3.org/2000/svg" xmlns:xlink="http://www.w3.org/1999/xlink" x="0px" y="0px"
	 width="171.264px" height="65.361px" viewBox="0 0 171.264 65.361" enable-background="new 0 0 171.264 65.361"
	 xml:space="preserve">
<g>
	<path fill="#403F37" d="M6.917,65.361c-1.059,0-1.992-0.148-2.798-0.448s-1.467-0.714-1.982-1.241
		c-0.516-0.529-0.935-1.188-1.258-1.979c-0.323-0.79-0.551-1.635-0.682-2.532S0,57.248,0,56.117v-7.169
		c0-1.132,0.065-2.146,0.197-3.044c0.131-0.898,0.359-1.742,0.682-2.533c0.323-0.789,0.743-1.446,1.258-1.971
		c0.516-0.523,1.176-0.935,1.982-1.234c0.806-0.299,1.739-0.449,2.798-0.449c1.172,0,2.184,0.174,3.037,0.52
		s1.535,0.855,2.046,1.529c0.511,0.674,0.895,1.454,1.153,2.343s0.41,1.927,0.457,3.114c0.009,0.178,0.014,0.453,0.014,0.828h-3.599
		v-0.8c-0.009-0.496-0.028-0.919-0.056-1.271c-0.028-0.35-0.08-0.713-0.155-1.086c-0.075-0.375-0.185-0.686-0.331-0.934
		s-0.328-0.477-0.548-0.688s-0.499-0.365-0.836-0.463s-0.731-0.147-1.181-0.147c-0.581,0-1.08,0.094-1.497,0.28
		c-0.417,0.188-0.743,0.428-0.978,0.723s-0.415,0.69-0.541,1.186c-0.126,0.496-0.209,0.98-0.246,1.452
		C3.618,46.776,3.6,47.358,3.6,48.051v8.979c0,0.598,0.025,1.141,0.077,1.627c0.051,0.486,0.152,0.971,0.302,1.451
		c0.15,0.482,0.345,0.887,0.583,1.215c0.239,0.326,0.558,0.591,0.956,0.792s0.865,0.302,1.399,0.302
		c0.535,0,0.994-0.104,1.378-0.309c0.384-0.206,0.687-0.468,0.907-0.785c0.22-0.318,0.394-0.725,0.521-1.221
		s0.208-0.978,0.246-1.445c0.037-0.468,0.056-1.01,0.056-1.627v-0.898h3.599v0.898c0,1.3-0.115,2.44-0.344,3.422
		c-0.23,0.982-0.6,1.85-1.111,2.604c-0.511,0.752-1.205,1.325-2.081,1.718C9.211,65.166,8.155,65.361,6.917,65.361z"/>
	<path fill="#403F37" d="M23.95,65.361c-1.266,0-2.351-0.191-3.255-0.574c-0.905-0.384-1.624-0.945-2.158-1.684
		s-0.923-1.606-1.167-2.603s-0.366-2.153-0.366-3.472V47.91c0-1.318,0.122-2.469,0.366-3.451s0.633-1.836,1.167-2.561
		s1.253-1.27,2.158-1.635c0.904-0.364,1.989-0.547,3.255-0.547c2.456,0,4.227,0.702,5.314,2.105
		c1.087,1.402,1.631,3.432,1.631,6.088v9.119c0,1.3-0.124,2.447-0.373,3.443c-0.248,0.996-0.64,1.866-1.174,2.609
		c-0.534,0.744-1.254,1.31-2.158,1.697C26.286,65.168,25.206,65.361,23.95,65.361z M21.328,61.279
		c0.482,0.758,1.356,1.137,2.622,1.137c1.265,0,2.139-0.379,2.622-1.137s0.724-1.875,0.724-3.353V47.012
		c0-1.459-0.239-2.548-0.717-3.268c-0.479-0.721-1.355-1.081-2.629-1.081c-1.275,0-2.151,0.36-2.629,1.081
		c-0.478,0.72-0.717,1.809-0.717,3.268v10.915C20.604,59.404,20.845,60.521,21.328,61.279z"/>
	<path fill="#403F37" d="M35.485,65.109V39.97h2.699l6.299,15.544V39.97h3.6v25.14h-2.559l-6.439-16.723v16.723H35.485z"/>
	<path fill="#403F37" d="M53.122,65.109V39.97h9.898v2.693h-6.299v8.081h4.499v2.693h-4.499v11.672H53.122z"/>
	<path fill="#403F37" d="M66.104,65.109V39.97h9.898v2.693h-6.299v8.081h4.5v2.693h-4.5v8.979h6.299v2.693H66.104z"/>
	<path fill="#403F37" d="M79.649,65.109V39.97h4.499c2.681,0,4.7,0.519,6.06,1.558c1.359,1.037,2.039,2.764,2.039,5.176
		c0,1.497-0.268,2.75-0.802,3.76c-0.534,1.011-1.316,1.703-2.348,2.076l4.049,12.57h-3.571l-3.627-11.672h-2.699v11.672H79.649z
		 M83.249,50.744h0.899c1.5,0,2.624-0.316,3.374-0.947s1.125-1.662,1.125-3.094c0-1.431-0.375-2.461-1.125-3.093
		s-1.874-0.947-3.374-0.947h-0.899V50.744z"/>
	<path fill="#403F37" d="M96.668,65.109V39.97h9.898v2.693h-6.299v8.081h4.499v2.693h-4.499v8.979h6.299v2.693H96.668z"/>
	<path fill="#403F37" d="M110.213,65.109V39.97h2.699l6.299,15.544V39.97h3.6v25.14h-2.559l-6.439-16.723v16.723H110.213z"/>
	<path fill="#403F37" d="M134.317,65.361c-1.06,0-1.992-0.148-2.798-0.448c-0.807-0.3-1.468-0.714-1.982-1.241
		c-0.516-0.529-0.936-1.188-1.259-1.979c-0.323-0.79-0.551-1.635-0.682-2.532c-0.132-0.897-0.197-1.913-0.197-3.044v-7.169
		c0-1.132,0.065-2.146,0.197-3.044c0.131-0.898,0.358-1.742,0.682-2.533c0.323-0.789,0.743-1.446,1.259-1.971
		c0.515-0.523,1.176-0.935,1.982-1.234c0.806-0.299,1.738-0.449,2.798-0.449c1.171,0,2.184,0.174,3.036,0.52
		c0.854,0.346,1.535,0.855,2.046,1.529s0.896,1.454,1.153,2.343s0.41,1.927,0.457,3.114c0.009,0.178,0.014,0.453,0.014,0.828h-3.6
		v-0.8c-0.009-0.496-0.027-0.919-0.056-1.271c-0.028-0.35-0.08-0.713-0.154-1.086c-0.075-0.375-0.186-0.686-0.331-0.934
		s-0.328-0.477-0.548-0.688c-0.221-0.211-0.499-0.365-0.837-0.463s-0.731-0.147-1.181-0.147c-0.582,0-1.081,0.094-1.498,0.28
		c-0.417,0.188-0.742,0.428-0.977,0.723s-0.415,0.69-0.542,1.186c-0.126,0.496-0.208,0.98-0.246,1.452
		c-0.037,0.473-0.056,1.055-0.056,1.747v8.979c0,0.598,0.025,1.141,0.077,1.627s0.152,0.971,0.303,1.451
		c0.149,0.482,0.344,0.887,0.583,1.215c0.239,0.326,0.558,0.591,0.956,0.792s0.865,0.302,1.399,0.302s0.993-0.104,1.378-0.309
		c0.384-0.206,0.687-0.468,0.906-0.785c0.221-0.318,0.394-0.725,0.521-1.221s0.208-0.978,0.246-1.445
		c0.037-0.468,0.056-1.01,0.056-1.627v-0.898h3.6v0.898c0,1.3-0.114,2.44-0.345,3.422c-0.229,0.982-0.6,1.85-1.11,2.604
		c-0.511,0.752-1.204,1.325-2.081,1.718C136.611,65.166,135.555,65.361,134.317,65.361z"/>
	<path fill="#403F37" d="M144.854,65.109V39.97h9.898v2.693h-6.299v8.081h4.499v2.693h-4.499v8.979h6.299v2.693H144.854z"/>
	<path fill="#403F37" d="M164.965,65.361c-2.268,0-4-0.664-5.194-1.992c-1.195-1.327-1.863-3.142-2.004-5.442l3.6-0.897
		c0.178,3.591,1.378,5.387,3.599,5.387c1.8,0,2.7-0.898,2.7-2.693c0-0.533-0.073-1.027-0.218-1.48
		c-0.146-0.453-0.368-0.869-0.668-1.248c-0.301-0.379-0.572-0.684-0.815-0.912c-0.244-0.229-0.577-0.512-0.999-0.85l-4.499-3.591
		c-0.824-0.646-1.483-1.466-1.976-2.462c-0.491-0.996-0.737-2.13-0.737-3.402c0-1.852,0.576-3.324,1.729-4.418
		c1.153-1.096,2.681-1.643,4.584-1.643c2.043,0,3.667,0.498,4.872,1.494c1.204,0.996,1.947,2.406,2.229,4.23
		c0.027,0.195,0.061,0.467,0.098,0.813l-3.599,0.897c-0.01-0.158-0.033-0.397-0.07-0.715c-0.16-1.142-0.519-2.056-1.076-2.743
		s-1.375-1.031-2.453-1.031c-0.862,0-1.528,0.241-1.996,0.723c-0.469,0.481-0.703,1.153-0.703,2.013c0,1.412,0.6,2.596,1.8,3.55
		l4.499,3.591c2.399,1.937,3.599,4.252,3.599,6.945c0,1.842-0.569,3.282-1.708,4.32S166.887,65.361,164.965,65.361z"/>
</g>
<g>
	<polygon fill="#84AA55" points="45.116,7.104 52.919,7.104 52.919,32.549 45.116,32.549 45.116,7.104 	"/>
	<polygon fill="#84AA55" points="54.954,7.104 63.497,7.104 73.442,26.012 83.388,7.104 91.931,7.104 78.256,32.549 68.627,32.549 
		54.954,7.104 	"/>
	<polygon fill="#403F37" points="73.442,0 75.038,4.911 80.201,4.911 76.022,7.947 77.621,12.861 73.442,9.824 69.264,12.861 
		70.863,7.947 66.682,4.911 71.846,4.911 73.442,0 	"/>
	<path fill="#84AA55" d="M113.545,7.104c1.729,0,3.105,0.083,4.134,0.248c1.028,0.164,1.9,0.433,2.618,0.808
		c1.282,0.672,2.214,1.67,2.796,2.993c0.578,1.323,0.868,3.15,0.868,5.481c0,3.477-0.579,5.934-1.738,7.374
		c-1.159,1.435-3.119,2.156-5.883,2.156h-14.489v6.321h-7.774V7.104H113.545z M113.272,13.429h-11.422v6.425h11.422
		c1.033,0,1.759-0.252,2.173-0.756c0.415-0.508,0.622-1.408,0.622-2.703c0-1.034-0.221-1.787-0.666-2.26
		C114.962,13.665,114.25,13.429,113.272,13.429z"/>
	<g>
		<path fill="#403F37" d="M123.862,6.223h-0.633V6.023h1.54v0.199h-0.635v1.612h-0.272V6.223z"/>
		<path fill="#403F37" d="M126.753,7.039c-0.015-0.253-0.032-0.559-0.032-0.782h-0.007c-0.075,0.211-0.158,0.438-0.264,0.688
			l-0.368,0.88h-0.201l-0.34-0.863c-0.099-0.256-0.18-0.488-0.239-0.704h-0.004c-0.008,0.228-0.021,0.527-0.039,0.8l-0.056,0.778
			h-0.257l0.145-1.812h0.342l0.355,0.876c0.086,0.222,0.154,0.421,0.211,0.61h0.007c0.053-0.183,0.127-0.382,0.221-0.61l0.369-0.876
			h0.342l0.13,1.812h-0.263L126.753,7.039z"/>
	</g>
</g>
<g>
</g>
<g>
</g>
<g>
</g>
<g>
</g>
<g>
</g>
<g>
</g>
<g>
</g>
<g>
</g>
<g>
</g>
<g>
</g>
<g>
</g>
<g>
</g>
<g>
</g>
<g>
</g>
<g>
</g>
</svg>
