<?xml version="1.0" encoding="utf-8"?>
<!-- Generator: Adobe Illustrator 18.1.1, SVG Export Plug-In . SVG Version: 6.00 Build 0)  -->
<!DOCTYPE svg PUBLIC "-//W3C//DTD SVG 1.1//EN" "http://www.w3.org/Graphics/SVG/1.1/DTD/svg11.dtd">
<svg version="1.1" id="Layer_1" xmlns="http://www.w3.org/2000/svg" xmlns:xlink="http://www.w3.org/1999/xlink" x="0px" y="0px"
	 viewBox="-633 688.6 171.3 65.4" enable-background="new -633 688.6 171.3 65.4" xml:space="preserve">
<g>
	<polygon fill="#84AA55" points="-588.1,699.7 -580.3,699.7 -580.3,725.2 -588.1,725.2 	"/>
	<polygon fill="#84AA55" points="-578.2,699.7 -569.7,699.7 -559.8,718.7 -549.8,699.7 -541.3,699.7 -554.9,725.2 -564.6,725.2 	"/>
	<polygon fill="#403F37" points="-559.8,692.6 -558.2,697.5 -553,697.5 -557.2,700.6 -555.6,705.5 -559.8,702.5 -563.9,705.5 
		-562.3,700.6 -566.5,697.5 -561.4,697.5 	"/>
	<path fill="#84AA55" d="M-519.7,699.7c1.7,0,3.1,0.1,4.1,0.2c1,0.2,1.9,0.4,2.6,0.8c1.3,0.7,2.2,1.7,2.8,3c0.6,1.3,0.9,3.1,0.9,5.5
		c0,3.5-0.6,5.9-1.7,7.4c-1.2,1.4-3.1,2.2-5.9,2.2h-14.5v6.3h-7.8v-25.4H-519.7z M-519.9,706.1h-11.4v6.4h11.4c1,0,1.8-0.3,2.2-0.8
		c0.4-0.5,0.6-1.4,0.6-2.7c0-1-0.2-1.8-0.7-2.3C-518.2,706.3-519,706.1-519.9,706.1z"/>
	<g>
		<path fill="#403F37" d="M-509.3,698.9h-0.6v-0.2h1.5v0.2h-0.6v1.6h-0.3C-509.3,700.5-509.3,698.9-509.3,698.9z"/>
		<path fill="#403F37" d="M-506.4,699.7c0-0.3,0-0.6,0-0.8h0c-0.1,0.2-0.2,0.4-0.3,0.7l-0.4,0.9h-0.2l-0.3-0.9
			c-0.1-0.3-0.2-0.5-0.2-0.7h0c0,0.2,0,0.5,0,0.8l-0.1,0.8h-0.3l0.1-1.8h0.3l0.4,0.9c0.1,0.2,0.2,0.4,0.2,0.6h0
			c0.1-0.2,0.1-0.4,0.2-0.6l0.4-0.9h0.3l0.1,1.8h-0.3L-506.4,699.7z"/>
	</g>
</g>
<g>
	<path fill="#403F37" d="M-633,748v-17.9h2v16.1h7.3v1.8H-633z"/>
	<path fill="#403F37" d="M-621.3,748v-17.9h8.9v1.8h-7v5.9h6.5v1.8h-6.5v6.6h7v1.8H-621.3z"/>
	<path fill="#403F37" d="M-598.4,748.1h-1.5v-2.8h0c-0.5,2-2.1,3.1-4.1,3.1c-5.3,0-5.7-5.3-5.7-9.5c0-4.2,0.7-9.2,5.9-9.2
		c3.4,0,5.4,2.2,5.3,5.6h-2c0-2.2-1-3.7-3.2-3.8c-3.9-0.1-4,4.4-4,7.5c0,2.7-0.1,7.5,3.4,7.6c3.7,0.2,4-3.2,4-6h-4v-1.8h6V748.1z"/>
	<path fill="#403F37" d="M-591.2,730.1h2.6l5,17.9h-2.2l-1.4-5.1h-5.6l-1.3,5.1h-2.2L-591.2,730.1z M-589.9,731.5L-589.9,731.5
		l-2.4,9.5h4.7L-589.9,731.5z"/>
	<path fill="#403F37" d="M-581.3,748v-17.9h2v16.1h7.3v1.8H-581.3z"/>
	<path fill="#403F37" d="M-555.9,734.8c0.1-1.9-0.9-3.3-2.8-3.3c-2.9,0-3.2,1.8-3.2,3.2c0,1.2,0.5,2,1.7,2.4c1,0.4,1.9,0.7,2.8,1.1
		c3.4,1.3,4,2.5,4,4.8c0,3.4-2.1,5.4-5.6,5.4c-1.8,0-3.9-0.5-4.9-2.8c-0.4-0.9-0.4-2.3-0.4-3.3h2c-0.1,2.6,0.4,4.3,3.4,4.3
		c2,0,3.4-1,3.4-3.1c0-2.7-1.1-2.7-2.9-3.4c-1-0.4-2.6-0.9-3.5-1.4c-1.7-0.9-2.1-2.3-2.1-4.1c0-3,2.1-4.9,5-4.9
		c3.3,0,5.3,1.7,5.1,5.1H-555.9z"/>
	<path fill="#403F37" d="M-551.8,730.1h11.2v1.8h-4.6V748h-2v-16.1h-4.6V730.1z"/>
	<path fill="#403F37" d="M-536.2,748h-2v-17.9h4.6c3.7,0,6.1,1,6,5.1c-0.1,2.1-1.4,3.6-3.4,3.9v0c2.3,0.2,2.9,1,3.2,3.3
		c0.1,1.3,0.2,2.6,0.4,4c0.1,0.3,0.2,1.1,0.7,1.1v0.4h-2.3c-0.4-1.1-0.6-3.4-0.6-4.6c0-1.8-0.7-3.3-3.1-3.3h-3.5V748z M-536.2,738.3
		h3.1c0.9,0,3.5-0.2,3.5-3.3c0-3.1-2.5-3.1-3.8-3.1h-2.8V738.3z"/>
	<path fill="#403F37" d="M-520.3,730.1h2.6l5,17.9h-2.2l-1.4-5.1h-5.6l-1.3,5.1h-2.2L-520.3,730.1z M-519,731.5L-519,731.5l-2.4,9.5
		h4.7L-519,731.5z"/>
	<path fill="#403F37" d="M-513.3,730.1h11.2v1.8h-4.6V748h-2v-16.1h-4.6V730.1z"/>
	<path fill="#403F37" d="M-500,748v-17.9h8.9v1.8h-7v5.9h6.5v1.8h-6.5v6.6h7v1.8H-500z"/>
	<path fill="#403F37" d="M-477.2,748.1h-1.5v-2.8h0c-0.5,2-2.1,3.1-4.1,3.1c-5.3,0-5.7-5.3-5.7-9.5c0-4.2,0.7-9.2,5.9-9.2
		c3.4,0,5.4,2.2,5.3,5.6h-2c0-2.2-1-3.7-3.2-3.8c-3.9-0.1-4,4.4-4,7.5c0,2.7-0.1,7.5,3.4,7.6c3.7,0.2,4-3.2,4-6h-4v-1.8h6V748.1z"/>
	<path fill="#403F37" d="M-468.7,739.1l4.2-9h2.2l-5.4,10.9v6.9h-2v-6.9l-5.4-10.9h2.2L-468.7,739.1z"/>
</g>
</svg>
