<?xml version="1.0" encoding="utf-8"?>
<!-- Generator: Adobe Illustrator 16.0.0, SVG Export Plug-In . SVG Version: 6.00 Build 0)  -->
<!DOCTYPE svg PUBLIC "-//W3C//DTD SVG 1.1//EN" "http://www.w3.org/Graphics/SVG/1.1/DTD/svg11.dtd">
<svg version="1.1" id="Layer_1" xmlns="http://www.w3.org/2000/svg" xmlns:xlink="http://www.w3.org/1999/xlink" x="0px" y="0px"
	 width="123.439px" height="48.096px" viewBox="0 0 123.439 48.096" enable-background="new 0 0 123.439 48.096"
	 xml:space="preserve">
<g>
	<rect y="9.786" fill="#85AB56" width="12.589" height="38.31"/>
	<polygon fill="#85AB56" points="34.093,48.096 13.459,9.786 27.295,9.786 41.487,36.704 55.682,9.786 69.513,9.786 48.882,48.096 	
		"/>
	<polygon fill="#85AB56" points="104.884,48.096 84.217,22.082 84.217,48.096 71.623,48.096 71.623,9.786 90.18,9.786 
		110.851,35.796 110.851,9.786 123.439,9.786 123.439,48.096 	"/>
	<polygon fill="#404037" points="41.485,0 43.819,7.165 51.381,7.165 45.265,11.604 47.603,18.769 41.485,14.343 35.373,18.769 
		37.716,11.604 31.595,7.165 39.153,7.165 	"/>
</g>
<g>
</g>
<g>
</g>
<g>
</g>
<g>
</g>
<g>
</g>
<g>
</g>
<g>
</g>
<g>
</g>
<g>
</g>
<g>
</g>
<g>
</g>
<g>
</g>
<g>
</g>
<g>
</g>
<g>
</g>
</svg>
